

<svg  width="32" height="32" fill="none" xmlns="http://www.w3.org/2000/svg" xmlns:xlink="http://www.w3.org/1999/xlink" width="260" zoomAndPan="magnify" viewBox="0 0 194.87999 195.000001" height="260" preserveAspectRatio="xMidYMid meet" version="1.0"><defs><clipPath id="1292331d47"><path d="M 12 12 L 182 12 L 182 181 L 12 181 Z M 12 12 " clip-rule="nonzero"/></clipPath><clipPath id="0fc61a6b8f"><path d="M 183.597656 181.550781 L 12.730469 183.199219 L 11.082031 12.332031 L 181.949219 10.683594 Z M 183.597656 181.550781 " clip-rule="nonzero"/></clipPath><clipPath id="4aebd4847c"><path d="M 183.597656 181.550781 L 12.730469 183.199219 L 11.082031 12.332031 L 181.949219 10.683594 Z M 183.597656 181.550781 " clip-rule="nonzero"/></clipPath></defs><g clip-path="url(#1292331d47)"><g clip-path="url(#0fc61a6b8f)"><g clip-path="url(#4aebd4847c)"><path fill="#19d079" d="M 152.515625 147.75 L 154.410156 145.796875 L 154.601562 145.601562 C 160.78125 139.523438 170.824219 139.488281 177.035156 145.578125 C 183.246094 151.667969 183.40625 161.707031 177.445312 168 L 177.253906 168.195312 L 175.359375 170.148438 L 170.117188 175.464844 C 163.960938 181.738281 153.789062 181.835938 147.492188 175.683594 C 141.21875 169.53125 141.121094 159.339844 147.273438 153.066406 Z M 63.957031 41.925781 L 62.066406 40.074219 L 59.894531 37.945312 L 39.984375 18.421875 C 33.710938 12.269531 23.535156 12.367188 17.359375 18.640625 C 11.203125 24.933594 11.304688 35.101562 17.578125 41.253906 L 37.488281 60.777344 L 39.660156 62.90625 L 41.550781 64.757812 L 52.972656 75.957031 C 59.246094 82.109375 69.417969 82.011719 75.59375 75.738281 L 86.796875 64.320312 L 88.777344 62.28125 L 110.441406 40.207031 C 116.59375 33.933594 116.496094 23.765625 110.222656 17.59375 C 103.945312 11.441406 93.753906 11.539062 87.597656 17.8125 L 65.9375 39.886719 Z M 19.027344 176.019531 L 19.007812 176.019531 C 12.730469 169.867188 12.632812 159.675781 18.789062 153.40625 L 152.183594 17.488281 C 158.339844 11.195312 168.53125 11.097656 174.808594 17.269531 C 181.082031 23.421875 181.179688 33.589844 175.027344 39.886719 L 41.632812 175.800781 C 35.476562 182.074219 25.304688 182.171875 19.027344 176.019531 Z M 83.507812 175.589844 C 77.230469 169.4375 77.132812 159.269531 83.289062 152.976562 L 98.472656 137.5 L 131.335938 104.011719 L 153 81.9375 C 159.152344 75.664062 169.347656 75.566406 175.621094 81.71875 C 181.898438 87.890625 181.996094 98.058594 175.839844 104.332031 L 154.179688 126.40625 L 121.316406 159.898438 L 106.128906 175.371094 C 99.976562 181.644531 89.78125 181.742188 83.507812 175.589844 Z M 83.507812 175.589844 " fill-opacity="1" fill-rule="evenodd"/></g></g></g></svg>